<svg width="127" height="127" viewBox="0 0 127 127" fill="none" xmlns="http://www.w3.org/2000/svg">
<path d="M100.912 76.6796L101.745 76.0205C105.925 72.7227 109.17 68.389 111.158 63.4495C111.158 63.4495 87.2774 27.6934 63.4818 12.0211C63.4818 12.0211 36.8356 33.1197 30.5036 44.3685C30.5036 44.3685 34.8745 60.1379 38.4934 64.4927C38.4934 64.4927 57.7523 46.0789 63.4818 44.1947C63.4818 44.1947 70.8974 49.5724 74.2171 58.9168L62.6084 69.9189L66.0777 74.5931L83.5614 59.6689C83.5614 59.6689 74.767 42.456 63.4818 32.9701L41.2429 51.8125C41.2429 51.8125 46.2811 34.0254 63.4818 16.9824C63.4818 16.9824 93.8277 51.5092 100.912 76.6796Z" fill="#FAB632"/>
<path d="M26.0882 50.3164L25.2512 50.9755C21.0722 54.2762 17.8275 58.6108 15.8381 63.5505C15.8381 63.5505 39.7226 99.3025 63.502 114.979C63.502 114.979 90.1482 93.8762 96.4802 82.6315C96.4802 82.6315 92.1052 66.8621 88.4904 62.5114C88.4904 62.5114 69.2234 80.7472 63.4979 82.6315C63.4979 82.6315 56.0823 77.4316 52.7667 68.0751L64.3713 57.073L60.9061 52.3988L43.4223 67.3231C43.4223 67.3231 52.233 84.5036 63.502 94.0097L85.7772 75.2077C85.7772 75.2077 80.7189 92.9988 63.502 110.026C63.502 110.005 33.1561 75.4908 26.0882 50.3164Z" fill="#FAB632"/>
</svg>
